<svg xmlns="http://www.w3.org/2000/svg" width="147" height="85">
    <defs>
        <filter id="a">
            <feFlood flood-color="#FFF" flood-opacity="1" result="floodOut"/>
            <feComposite in="floodOut" in2="SourceGraphic" operator="atop" result="compOut"/>
            <feBlend in="compOut" in2="SourceGraphic"/>
        </filter>
    </defs>
    <path fill="#002566" fill-rule="evenodd" d="M140.233 83.882l-1.594-2.869h-12.335l-1.571 2.869h-6.403l10.578-16.904h7.152l10.576 16.904h-6.403zm-7.762-12.281l-3.47 5.394h6.941l-3.471-5.394zM77.737 54.964L112.244.899h12.03L89.769 54.964H77.737zm-21.246-.188L90.877.899h12.03L68.486 54.833l-11.995-.057zm4.557 29.309h-6.034V72.61l-7.011 11.475h-4.714l-7.198-11.452v11.452h-6.035V67.06h8.521l7.01 10.967 6.824-10.967h8.637v17.025zm-43.219-.172H9.435C3.182 83.71.361 80.021.361 75.518c0-4.502 2.414-8.489 9.074-8.489h8.394c6.567 0 9.147 4.033 9.147 8.489s-2.58 8.395-9.147 8.395zm-1.288-12.882h-5.792c-3.846 0-4.761 2.329-4.761 4.464 0 2.133.915 4.439 4.761 4.439h5.792c3.775 0 4.807-2.329 4.807-4.439 0-2.111-1.032-4.464-4.807-4.464zm71.403-.124H70.911v2.047h15.174v4.018H70.911v2.048h17.033v4.862H65.079V67.06h22.865v3.847zm11.708-3.878h7.458c5.275 0 8.112 2.72 8.84 6.003h-6.051c-.445-.962-1.945-2.023-4.08-2.023h-4.854c-3.845 0-4.76 2.492-4.76 4.626 0 2.134.915 4.322 4.76 4.322h5.089c2.486 0 4.393-1.659 4.956-2.973h-7.975v-2.948h13.055v9.846h-3.916l-1.102-2.126c-.257.633-1.243 2.157-4.456 2.157h-6.964c-6.659 0-9.075-3.752-9.075-8.255 0-4.502 2.416-8.629 9.075-8.629z" filter="url(#a)"/>
</svg>
